<svg xmlns="http://www.w3.org/2000/svg" viewBox="0 0 850 327" width="100%" height="327">
  <defs>
    <style>
      @import url('https://fonts.googleapis.com/css2?family=Plus+Jakarta+Sans:wght@500;600;700&amp;family=Fira+Code:wght@500;600&amp;display=swap');
      
      .header-title { font-family: 'Fira Code', monospace; font-size: 11.5px; font-weight: 600; fill: #00F5A0; letter-spacing: 2px; text-transform: uppercase; }
      .card { fill: #08100C; stroke: rgba(16, 185, 129, 0.22); stroke-width: 1; }
      .title { font-family: 'Plus Jakarta Sans', sans-serif; font-size: 15px; font-weight: 700; fill: #FFFFFF; letter-spacing: 0.3px; }
      .desc { font-family: 'Plus Jakarta Sans', sans-serif; font-size: 12.5px; fill: #94A3B8; }
      .meta { font-family: 'Fira Code', monospace; font-size: 12px; fill: #CBD5E1; }
      .tag-text { font-family: 'Fira Code', monospace; font-size: 9.5px; font-weight: 600; fill: #00F5A0; letter-spacing: 1px; }
    </style>
  </defs>

  <!-- Section Header -->
  <g transform="translate(10, 20)">
    <circle cx="4" cy="-4" r="3.5" fill="#00F5A0" />
    <text class="header-title" x="16" y="0">ECOSYSTEM_DEPLOYMENTS // FEATURED ARCHITECTURES</text>
  </g>

  
    <g transform="translate(5, 40)">
      <!-- Card Container -->
      <rect class="card" width="412" height="125" rx="8" />
      
      <!-- Top Accent Line -->
      <line x1="0" y1="0" x2="35" y2="0" stroke="#00F5A0" stroke-width="2" />

      <!-- Project Title -->
      <text class="title" x="22" y="36">Gsap-Components</text>
      
      <!-- Project Description -->
      <text class="desc" x="22" y="65">A modern open-source UI component library focused on simplicit...</text>
      
      <!-- Project Metadata Bar -->
      <g transform="translate(22, 98)">
        <circle cx="5" cy="-4" r="4.5" fill="#3178c6" />
        <text class="meta" x="16" y="0">TypeScript</text>
        
        <!-- Star Icon -->
        <g transform="translate(130, -11)">
          <path fill="#F59E0B" d="M8 0.25a.75.75 0 0 1 .673.418l1.882 3.815 4.21.612a.75.75 0 0 1 .416 1.279l-3.046 2.97.719 4.192a.751.751 0 0 1-1.088.791L8 12.347l-3.766 1.98a.75.75 0 0 1-1.088-.79l.72-4.194L.818 6.374a.75.75 0 0 1 .416-1.28l4.21-.611L7.327.668A.75.75 0 0 1 8 .25Z" transform="scale(0.85)"/>
          <text class="meta" x="18" y="11">1</text>
        </g>

        <!-- Status Tag -->
        <g transform="translate(290, -12)">
          <rect fill="rgba(16,185,129,0.12)" stroke="rgba(16,185,129,0.3)" width="65" height="18" rx="4" />
          <text class="tag-text" x="32" y="12" text-anchor="middle">ACTIVE</text>
        </g>
      </g>
    </g>
    
    <g transform="translate(433, 40)">
      <!-- Card Container -->
      <rect class="card" width="412" height="125" rx="8" />
      
      <!-- Top Accent Line -->
      <line x1="0" y1="0" x2="35" y2="0" stroke="#00F5A0" stroke-width="2" />

      <!-- Project Title -->
      <text class="title" x="22" y="36">Automatic-Linkedin-Bot-</text>
      
      <!-- Project Description -->
      <text class="desc" x="22" y="65">This is the linkdin bot where user explain in short and it upl...</text>
      
      <!-- Project Metadata Bar -->
      <g transform="translate(22, 98)">
        <circle cx="5" cy="-4" r="4.5" fill="#e34c26" />
        <text class="meta" x="16" y="0">HTML</text>
        
        <!-- Star Icon -->
        <g transform="translate(130, -11)">
          <path fill="#F59E0B" d="M8 0.25a.75.75 0 0 1 .673.418l1.882 3.815 4.21.612a.75.75 0 0 1 .416 1.279l-3.046 2.97.719 4.192a.751.751 0 0 1-1.088.791L8 12.347l-3.766 1.98a.75.75 0 0 1-1.088-.79l.72-4.194L.818 6.374a.75.75 0 0 1 .416-1.28l4.21-.611L7.327.668A.75.75 0 0 1 8 .25Z" transform="scale(0.85)"/>
          <text class="meta" x="18" y="11">1</text>
        </g>

        <!-- Status Tag -->
        <g transform="translate(290, -12)">
          <rect fill="rgba(16,185,129,0.12)" stroke="rgba(16,185,129,0.3)" width="65" height="18" rx="4" />
          <text class="tag-text" x="32" y="12" text-anchor="middle">ACTIVE</text>
        </g>
      </g>
    </g>
    
    <g transform="translate(5, 181)">
      <!-- Card Container -->
      <rect class="card" width="412" height="125" rx="8" />
      
      <!-- Top Accent Line -->
      <line x1="0" y1="0" x2="35" y2="0" stroke="#00F5A0" stroke-width="2" />

      <!-- Project Title -->
      <text class="title" x="22" y="36">Auto-Youtbe-App</text>
      
      <!-- Project Description -->
      <text class="desc" x="22" y="65">Production-grade engineering & systems project.</text>
      
      <!-- Project Metadata Bar -->
      <g transform="translate(22, 98)">
        <circle cx="5" cy="-4" r="4.5" fill="#3572A5" />
        <text class="meta" x="16" y="0">Python</text>
        
        <!-- Star Icon -->
        <g transform="translate(130, -11)">
          <path fill="#F59E0B" d="M8 0.25a.75.75 0 0 1 .673.418l1.882 3.815 4.21.612a.75.75 0 0 1 .416 1.279l-3.046 2.97.719 4.192a.751.751 0 0 1-1.088.791L8 12.347l-3.766 1.98a.75.75 0 0 1-1.088-.79l.72-4.194L.818 6.374a.75.75 0 0 1 .416-1.28l4.21-.611L7.327.668A.75.75 0 0 1 8 .25Z" transform="scale(0.85)"/>
          <text class="meta" x="18" y="11">0</text>
        </g>

        <!-- Status Tag -->
        <g transform="translate(290, -12)">
          <rect fill="rgba(16,185,129,0.12)" stroke="rgba(16,185,129,0.3)" width="65" height="18" rx="4" />
          <text class="tag-text" x="32" y="12" text-anchor="middle">ACTIVE</text>
        </g>
      </g>
    </g>
    
    <g transform="translate(433, 181)">
      <!-- Card Container -->
      <rect class="card" width="412" height="125" rx="8" />
      
      <!-- Top Accent Line -->
      <line x1="0" y1="0" x2="35" y2="0" stroke="#00F5A0" stroke-width="2" />

      <!-- Project Title -->
      <text class="title" x="22" y="36">Marg-Application</text>
      
      <!-- Project Description -->
      <text class="desc" x="22" y="65">Logistics truck driver and user application </text>
      
      <!-- Project Metadata Bar -->
      <g transform="translate(22, 98)">
        <circle cx="5" cy="-4" r="4.5" fill="#3178c6" />
        <text class="meta" x="16" y="0">TypeScript</text>
        
        <!-- Star Icon -->
        <g transform="translate(130, -11)">
          <path fill="#F59E0B" d="M8 0.25a.75.75 0 0 1 .673.418l1.882 3.815 4.21.612a.75.75 0 0 1 .416 1.279l-3.046 2.97.719 4.192a.751.751 0 0 1-1.088.791L8 12.347l-3.766 1.98a.75.75 0 0 1-1.088-.79l.72-4.194L.818 6.374a.75.75 0 0 1 .416-1.28l4.21-.611L7.327.668A.75.75 0 0 1 8 .25Z" transform="scale(0.85)"/>
          <text class="meta" x="18" y="11">0</text>
        </g>

        <!-- Status Tag -->
        <g transform="translate(290, -12)">
          <rect fill="rgba(16,185,129,0.12)" stroke="rgba(16,185,129,0.3)" width="65" height="18" rx="4" />
          <text class="tag-text" x="32" y="12" text-anchor="middle">ACTIVE</text>
        </g>
      </g>
    </g>
    
</svg>